HIERARCHY
ROOT Hips
{
	OFFSET	11.5779	88.8360	-13.4663
	CHANNELS 6 Xposition Yposition Zposition Zrotation Yrotation Xrotation
	JOINT Chest
	{
		OFFSET	0.0000	16.3830	0.0000
		CHANNELS 3 Zrotation Yrotation Xrotation
		JOINT LeftCollar
		{
			OFFSET	3.8100	32.7660	-3.8100
			CHANNELS 3 Zrotation Yrotation Xrotation
			JOINT LeftUpArm
			{
				OFFSET	14.5367	0.0000	3.8951
				CHANNELS 3 Zrotation Yrotation Xrotation
				JOINT LeftLowArm
				{
					OFFSET	30.2895	0.0000	0.0000
					CHANNELS 3 Zrotation Yrotation Xrotation
					JOINT LeftHand
					{
						OFFSET	27.2415	0.0000	0.0000
						CHANNELS 3 Zrotation Yrotation Xrotation
						End Site
						{
							OFFSET	15.2400	0.0000	0.0000
						}
					}
				}
			}
		}
		JOINT Neck
		{
			OFFSET	0.0000	32.7660	0.0000
			CHANNELS 3 Zrotation Yrotation Xrotation
			JOINT Head
			{
				OFFSET	0.0000	19.6215	0.0000
				CHANNELS 3 Zrotation Yrotation Xrotation
				End Site
				{
					OFFSET	0.0000	0.0000	10.1600
				}
			}
		}
		JOINT RightCollar
		{
			OFFSET	-3.8100	32.7660	-3.8100
			CHANNELS 3 Zrotation Yrotation Xrotation
			JOINT RightUpArm
			{
				OFFSET	-14.5367	0.0000	3.8951
				CHANNELS 3 Zrotation Yrotation Xrotation
				JOINT RightLowArm
				{
					OFFSET	-30.2895	0.0000	0.0000
					CHANNELS 3 Zrotation Yrotation Xrotation
					JOINT RightHand
					{
						OFFSET	-27.2415	0.0000	0.0000
						CHANNELS 3 Zrotation Yrotation Xrotation
						End Site
						{
							OFFSET	-15.2400	0.0000	0.0000
						}
					}
				}
			}
		}
	}
	JOINT LeftUpLeg
	{
		OFFSET	9.3345	0.0000	0.0000
		CHANNELS 3 Zrotation Yrotation Xrotation
		JOINT LeftLowLeg
		{
			OFFSET	0.0000	-45.5295	0.0000
			CHANNELS 3 Zrotation Yrotation Xrotation
			JOINT LeftFoot
			{
				OFFSET	0.0000	-44.1960	0.0000
				CHANNELS 3 Zrotation Yrotation Xrotation
				End Site
				{
					OFFSET	0.0000	0.0000	20.3200
				}
			}
		}
	}
	JOINT RightUpLeg
	{
		OFFSET	-9.3345	0.0000	0.0000
		CHANNELS 3 Zrotation Yrotation Xrotation
		JOINT RightLowLeg
		{
			OFFSET	0.0000	-45.5295	0.0000
			CHANNELS 3 Zrotation Yrotation Xrotation
			JOINT RightFoot
			{
				OFFSET	0.0000	-44.1960	0.0000
				CHANNELS 3 Zrotation Yrotation Xrotation
				End Site
				{
					OFFSET	0.0000	0.0000	20.3200
				}
			}
		}
	}
}
MOTION
Frames: 22
Frame Time: 0.0166666666667
11.5779	88.8360	-13.4663	0.3795	-38.2709	-3.2462	1.4791	4.7309	10.6824	-7.5454	-10.1223	0.8283	-66.8377	-10.1996	40.9647	9.5636	-19.9296	15.0411	-2.2050	-1.8885	-6.0153	-1.7922	-1.6803	-22.4203	2.4189	-1.2836	12.6801	9.6134	4.9473	-2.4742	70.3482	7.6823	33.3759	-5.6635	15.2905	17.9287	5.1371	2.5297	6.5779	7.1646	5.9182	1.5559	0.5063	6.7750	1.8724	-5.6960	-0.2946	-1.5715	-9.2351	1.1185	-1.2401	1.3193	2.7315	7.4539	5.8009	-5.1768	-3.5448	
-1.7736	88.9259	-9.1247	0.0473	-38.1170	-2.8652	1.4621	4.5521	10.4022	-7.4916	-10.1596	0.8217	-66.8690	-9.9526	40.8099	8.4398	-18.2308	15.4334	-1.6715	-2.3251	-5.6844	-1.7764	-1.6596	-22.4035	2.4360	-1.2654	12.6985	9.7019	4.9086	-2.4090	70.4814	7.7450	33.3808	-5.4887	14.6115	17.7745	5.0150	2.6686	6.7682	6.9403	5.9117	1.5169	0.8376	6.6762	1.6846	-5.6054	-0.3027	-1.5359	-8.9915	0.9867	-1.4020	1.1172	2.4735	7.1308	5.9520	-4.9983	-3.1837	
-1.5080	89.0283	-8.7223	-0.1090	-38.0027	-2.7609	1.3303	4.4111	10.3131	-7.4338	-10.1974	0.7916	-66.9080	-9.7046	40.6541	8.2948	-17.7407	15.6330	-1.9096	-2.1285	-5.3333	-1.7211	-1.6404	-22.3882	2.4924	-1.2509	12.7152	9.7138	4.8640	-2.3581	70.6528	7.8443	33.3322	-5.3386	14.1770	17.7281	5.0072	2.5970	6.7708	6.8811	5.8085	1.6230	0.9007	6.6475	1.5479	-5.5094	-0.2741	-1.5493	-8.8739	0.9040	-1.4329	0.9624	2.3048	6.9504	6.0656	-4.8715	-2.9207	
-1.4079	89.0772	-8.4917	-0.2161	-37.9215	-2.7062	1.1174	4.3047	10.2531	-7.2645	-10.1691	0.7827	-67.0162	-9.5228	40.5360	7.7943	-16.5979	15.8569	-1.9855	-2.1906	-4.6179	-1.6860	-1.6646	-22.4461	2.5257	-1.2720	12.6554	9.8829	4.8822	-2.3012	70.6291	7.9165	33.1748	-5.1765	13.9224	17.7748	4.9978	2.6850	6.7878	6.8708	5.7306	1.6921	0.9423	6.5597	1.4427	-5.4609	-0.1913	-1.5333	-8.7929	0.8588	-1.4503	0.9383	2.2514	6.9676	6.0819	-4.8539	-2.8722	
-1.3544	89.1043	-8.3952	-0.2684	-37.9012	-2.7859	1.1145	4.2783	10.3566	-7.6308	-10.2599	0.6846	-66.8213	-9.2193	40.4081	7.6577	-15.9210	15.9774	-2.0538	-2.2632	-4.1797	-1.7463	-1.7000	-22.5175	2.4631	-1.2977	12.5815	9.6195	4.7787	-2.2908	70.8260	7.9604	33.1874	-5.1017	13.7053	17.6960	5.0590	2.4175	6.5497	6.8213	5.4741	1.7594	1.0131	6.7274	1.4604	-5.4104	-0.1310	-1.4859	-8.7508	0.8853	-1.3714	0.8003	2.0171	6.8037	6.1541	-4.6550	-2.6423	
-1.2582	89.1205	-8.3774	-0.3029	-37.8936	-2.8385	0.8959	4.2657	10.4522	-7.6342	-10.2248	0.6080	-66.7896	-9.0464	40.3315	7.6469	-15.4824	16.1046	-2.9840	-1.5737	-3.6937	-1.6830	-1.7341	-22.6020	2.5239	-1.3281	12.4942	9.7136	4.7818	-2.2859	70.9025	8.0029	33.1841	-5.1460	13.3721	17.5706	5.0973	2.4877	6.4885	6.7480	5.3371	1.7537	1.0324	6.7596	1.5681	-5.3196	-0.0458	-1.5371	-8.8266	0.8617	-1.4489	0.9069	2.0412	6.9912	6.1603	-4.6486	-2.6756	
-1.1156	89.1411	-8.3170	-0.4783	-37.8545	-2.9520	0.9842	4.2189	10.6876	-7.9388	-10.2140	0.5561	-66.6480	-8.8575	40.2726	7.4692	-14.5108	15.9364	-3.2703	-1.6017	-3.0131	-1.7069	-1.7712	-22.6737	2.4976	-1.3575	12.4198	9.6374	4.7706	-2.2219	70.4023	7.8955	33.0780	-4.7613	13.8154	17.5099	5.1587	2.2311	6.3019	6.7968	5.2030	1.9140	1.0606	6.7978	1.7008	-5.1852	-0.0016	-1.5832	-8.7623	0.8208	-1.3150	0.9909	2.0857	7.1246	6.1466	-4.6883	-2.7157	
-1.0061	89.1802	-8.2046	-0.5327	-37.9026	-3.0094	0.8820	4.2815	10.8340	-7.9792	-10.1951	0.4879	-66.6668	-8.7301	40.2027	7.4781	-13.9392	15.7622	-3.8281	-1.2851	-2.3948	-1.6713	-1.8085	-22.7539	2.5306	-1.3900	12.3367	9.6871	4.7789	-2.1980	70.3513	7.9459	33.0263	-5.0583	13.2372	17.4832	5.3584	2.7968	6.1779	6.7926	5.2041	1.9804	1.0383	6.8066	1.8123	-5.0920	0.0244	-1.6862	-8.9292	0.7398	-1.3999	1.2032	2.3242	7.6519	6.1916	-4.7703	-3.0838	
-0.9288	89.2001	-8.1098	-0.5596	-37.9699	-3.0542	0.7312	4.3767	10.9447	-8.0030	-10.1713	0.4556	-66.5674	-8.5486	40.1059	7.5115	-13.5268	15.3880	-4.1804	-1.0835	-1.8858	-1.7334	-1.9235	-22.9575	2.4609	-1.4834	12.1244	9.7711	4.8202	-2.1136	69.9381	7.9660	32.8255	-4.9257	13.2456	17.4869	5.4648	2.9618	6.0591	6.7156	5.0879	2.0394	1.0577	6.9585	1.9020	-5.0041	0.0229	-1.8045	-9.1123	0.6836	-1.4110	1.4028	2.5120	7.8984	6.2303	-4.8274	-3.2757	
-0.8303	89.2204	-7.9823	-0.5864	-38.0371	-3.0990	0.7389	4.4481	11.0110	-8.0928	-10.1593	0.4661	-66.4887	-8.4332	40.0493	7.5334	-13.3388	15.1310	-4.2439	-0.8929	-2.0709	-1.7815	-1.9732	-23.0040	2.4098	-1.5260	12.0741	9.7016	4.8524	-1.9665	69.7100	8.0366	32.6350	-4.8548	13.2162	17.4512	5.4388	2.9251	5.9594	6.6684	4.9803	2.1474	1.0616	7.1083	1.9239	-4.9193	0.0508	-1.8685	-9.3244	0.6125	-1.4192	1.6372	2.6910	8.0751	6.2195	-4.8577	-3.3493	
-0.7775	89.2369	-7.8590	-0.6132	-38.1045	-3.1437	0.7100	4.5025	11.0333	-8.1798	-10.0788	0.5405	-66.3157	-8.2029	39.6310	7.5847	-13.4185	15.1662	-4.3925	-0.6635	-2.2054	-1.8109	-1.9887	-22.9985	2.3796	-1.5401	12.0784	9.6904	4.9040	-1.8021	69.4922	8.0726	32.4959	-4.8402	13.1200	17.3617	5.4565	3.1220	5.9680	6.6191	4.8548	2.2734	1.0917	7.3042	1.9447	-4.8748	0.0352	-1.9431	-9.4717	0.5429	-1.3476	1.7769	2.8445	8.2230	6.2664	-4.8493	-3.5069	
-0.7549	89.2517	-7.7226	-0.7063	-38.0636	-3.0768	0.7584	4.4627	10.9801	-8.3533	-9.9299	0.6207	-66.1179	-8.0842	39.4490	7.6666	-13.5001	15.1211	-4.6056	-0.3575	-2.4161	-1.8580	-2.0034	-22.9770	2.3318	-1.5539	12.0988	9.6772	4.9329	-1.6919	69.2845	8.0577	32.3980	-4.8191	13.0256	17.2530	5.2385	3.0599	5.8366	6.6088	4.6275	2.3162	1.1122	7.5046	1.8721	-4.8210	0.0313	-1.9117	-9.4456	0.4095	-1.2451	1.8129	2.9503	8.1758	6.2645	-4.8730	-3.4894	
-0.7062	89.2750	-7.6332	-0.8096	-38.0057	-2.9926	0.8385	4.4236	10.9573	-8.4400	-9.8372	0.6216	-66.0188	-7.9318	39.2518	7.7379	-13.6031	15.1367	-4.8143	-0.0331	-2.6875	-1.8995	-1.9989	-22.9144	2.2911	-1.5522	12.1616	9.6464	4.9321	-1.6803	69.0732	8.0337	32.2869	-4.7394	12.9240	17.1919	4.9801	3.0505	5.6695	6.7127	4.3334	2.3588	1.0252	7.7509	1.7863	-4.7498	0.0236	-1.8823	-9.3098	0.3123	-1.1474	1.8041	3.0258	8.1479	6.2238	-4.9161	-3.5405	
-0.7325	89.2904	-7.5945	-0.9127	-37.9477	-2.9087	0.9330	4.3924	10.9450	-8.4686	-9.7613	0.5852	-65.9887	-7.7621	39.0578	8.0394	-14.1045	14.8720	-5.3411	0.6368	-2.7657	-1.9325	-1.9797	-22.8192	2.2597	-1.5392	12.2582	9.6058	4.9153	-1.7082	68.8877	7.9986	32.1855	-4.6837	12.7868	17.0264	4.8298	3.1043	5.4786	6.7974	4.2420	2.3520	1.0053	7.7936	1.7374	-4.7485	0.0079	-1.8326	-9.1172	0.2167	-1.1044	1.7280	3.1021	8.1454	6.1963	-4.9575	-3.5824	
-0.7389	89.3038	-7.5948	-1.0474	-37.7671	-2.7727	1.0577	4.2739	10.8999	-8.4845	-9.6800	0.5369	-65.9722	-7.6209	38.8628	8.2618	-14.5561	14.7369	-5.6131	1.0552	-3.1317	-1.9593	-1.9500	-22.6890	2.2353	-1.5192	12.3904	9.5666	4.8568	-1.7389	68.7864	7.9767	32.1273	-4.6781	12.6392	16.7971	4.7390	3.1319	5.2717	6.9638	4.1510	2.4147	0.9096	7.7153	1.5762	-4.7518	-0.0047	-1.8050	-8.9954	0.0154	-1.1246	1.7469	3.1566	8.1930	6.2185	-5.0066	-3.5924	
-0.8485	89.3187	-7.5294	-1.1009	-37.6565	-2.7307	1.1289	4.2181	10.9012	-8.4962	-9.5982	0.5011	-65.9555	-7.5055	38.6252	8.5140	-15.1811	14.6614	-5.9146	1.4836	-3.4239	-1.9869	-1.8974	-22.5258	2.2116	-1.4791	12.5574	9.4735	4.8830	-1.8566	68.6018	7.9637	31.7435	-4.3967	12.5530	16.8297	4.6686	3.1007	4.8989	7.0649	4.1205	2.5118	0.8252	7.6437	1.4327	-4.7359	-0.0170	-1.7739	-8.8004	-0.1438	-1.1675	1.6416	3.2112	8.2393	6.2109	-5.0488	-3.5535	
-0.9378	89.3234	-7.4805	-1.1326	-37.5817	-2.6996	1.2082	4.2547	10.9303	-8.5079	-9.5746	0.4517	-65.9282	-7.4843	38.4151	8.5278	-15.5336	14.9053	-5.9085	1.5194	-3.9949	-1.9969	-1.9114	-22.4541	2.2012	-1.4985	12.6277	9.4449	4.8592	-1.9221	68.4742	7.9828	31.5147	-4.2844	12.4306	16.6925	4.6399	3.1316	4.8012	7.1834	4.3030	2.5911	0.7272	7.4024	1.3349	-4.7287	-0.0408	-1.7590	-8.6425	-0.1767	-1.2061	1.5271	3.1939	8.2277	6.2050	-5.1114	-3.4958	
-1.0437	89.3221	-7.4468	-1.1940	-37.4342	-2.5666	1.2913	4.2123	10.8704	-8.5066	-9.5511	0.4063	-65.8973	-7.5114	38.2296	8.5117	-15.8481	15.1178	-5.8855	1.4281	-4.3553	-1.9764	-1.8786	-22.3222	2.2242	-1.4783	12.7618	9.4253	4.8084	-1.9740	68.3263	8.0565	31.2667	-4.0700	12.2284	16.3299	4.5931	3.1333	4.3186	7.2421	4.2224	2.4980	0.7093	7.3698	1.3332	-4.7302	-0.0638	-1.7669	-8.5063	-0.2138	-1.2714	1.4575	3.1252	8.1739	6.1967	-5.2027	-3.4467	
-1.0920	89.3283	-7.4151	-1.2346	-37.3089	-2.4641	1.3297	4.1500	10.8062	-8.4622	-9.3939	0.4115	-65.8966	-7.6101	38.1042	8.4930	-16.1629	15.3305	-5.8040	1.0652	-4.6191	-1.9220	-1.8318	-22.2131	2.2817	-1.4443	12.8742	9.4802	4.8863	-1.9577	68.2186	8.0601	31.0835	-3.9650	12.0552	16.0592	4.5203	3.1874	3.8402	7.6201	4.6963	2.5455	0.4273	6.9152	1.3464	-4.7923	-0.2180	-1.8714	-8.3853	-0.2252	-1.3228	1.3861	3.0532	8.1230	6.1771	-5.2723	-3.4039	
-1.4567	89.3032	-7.3954	-1.2743	-37.1431	-2.3845	1.3886	4.1671	10.7959	-8.4176	-9.3784	0.4030	-65.8934	-7.7009	37.9748	8.4719	-16.4660	15.5368	-5.6729	0.5725	-4.8489	-1.8837	-1.8606	-22.1381	2.3186	-1.4816	12.9464	9.5002	4.7644	-2.0137	68.1415	8.1477	30.8999	-3.8274	11.9149	16.0393	4.4888	3.2250	3.5983	7.8265	4.9974	2.5009	0.3092	6.5499	1.4112	-4.7886	-0.3194	-1.8904	-8.2152	-0.1123	-1.2633	1.2820	2.8367	7.9860	6.1410	-5.3684	-3.3590	
-1.6522	89.2906	-7.3930	-1.3301	-36.8681	-2.2712	1.4319	3.9609	10.7398	-8.3980	-9.3543	0.3928	-65.9015	-7.7554	37.9570	8.5200	-16.7194	15.6435	-5.5371	0.2436	-4.9949	-1.8773	-1.8854	-22.1360	2.3235	-1.5069	12.9464	9.5865	4.8809	-1.9807	67.9714	8.2217	30.7034	-3.6687	11.7468	15.8699	4.4231	3.3182	3.2959	8.0058	5.1089	2.3854	0.2639	6.2917	1.5276	-4.8616	-0.4575	-1.9672	-8.1295	-0.1607	-1.1868	1.2790	2.6727	7.7676	6.0919	-5.4736	-3.2592	
-1.8614	89.2783	-7.3846	-1.3369	-36.7031	-2.2677	1.4618	3.9002	10.7587	-8.3688	-9.2814	0.4302	-65.9471	-7.8524	38.0736	8.5391	-16.8793	15.6467	-5.4025	-0.0268	-4.9341	-1.8044	-1.8648	-22.0461	2.3979	-1.4983	13.0375	9.6008	4.8473	-1.9824	67.9373	8.2059	30.7565	-3.5366	11.6578	15.6589	4.2783	3.3774	2.7905	8.1518	5.2470	2.3519	0.2158	6.0961	1.6477	-4.9477	-0.6060	-2.0258	-8.0590	-0.0870	-1.0113	1.2112	2.4571	7.5781	6.0953	-5.5057	-3.2196	
